<svg width="50" height="50" viewBox="0 0 50 50" xmlns="http://www.w3.org/2000/svg">
  <rect id="bg" width="50" height="50" rx="11" fill="white" />
  <path
    id="object"
    d="M37.45 8.85L26.35 19.95L30.05 23.65L43 10.7V8.85H37.45ZM20.8 14.4C20.8 10.3115 17.4885 7 13.4 7C9.3115 7 6 10.3115 6 14.4C6 18.4885 9.3115 21.8 13.4 21.8C14.4915 21.8 15.509 21.5595 16.434 21.134L20.8 25.5L16.434 29.866C15.509 29.4405 14.4915 29.2 13.4 29.2C9.3115 29.2 6 32.5115 6 36.6C6 40.6885 9.3115 44 13.4 44C17.4885 44 20.8 40.6885 20.8 36.6C20.8 35.5085 20.5595 34.491 20.134 33.566L24.5 29.2L37.45 42.15H43V40.3L20.134 17.434C20.5595 16.509 20.8 15.4915 20.8 14.4ZM13.4 18.1C11.365 18.1 9.7 16.4535 9.7 14.4C9.7 12.3465 11.365 10.7 13.4 10.7C15.435 10.7 17.1 12.3465 17.1 14.4C17.1 16.4535 15.435 18.1 13.4 18.1ZM13.4 40.3C11.365 40.3 9.7 38.6535 9.7 36.6C9.7 34.5465 11.365 32.9 13.4 32.9C15.435 32.9 17.1 34.5465 17.1 36.6C17.1 38.6535 15.435 40.3 13.4 40.3ZM24.5 24.575C25.018 24.575 25.425 24.982 25.425 25.5C25.425 26.018 25.018 26.425 24.5 26.425C23.982 26.425 23.575 26.018 23.575 25.5C23.575 24.982 23.982 24.575 24.5 24.575Z"
    fill="black"
  />
</svg>
